#Comment line ignore any data following # character 
#Hierarchical Translation and Rotation (.htr) file 
[Header]	
#Header keywords are followed by a single value 
FileType HTR		#Single word string
DataType HTRS		#Translation followed by rotation and scale data
FileVersion 1		#integer
NumSegments 84		#integer
NumFrames 2		#integer
DataFrameRate 30		#integer, data frame rate in this file
EulerRotationOrder ZYX
CalibrationUnits mm
RotationUnits Degrees
GlobalAxisofGravity Y
BoneLengthAxis Y
ScaleFactor 1.00
[SegmentNames&Hierarchy]
#CHILD	PARENT
MASTER GLOBAL
root MASTER
chest root
L_mid_tent01 root
R_mid_tent01 root
spine01 root
Bip01_Neck chest
L_humerus chest
R_humerus chest
weapon_bone chest
Bip01_Head Bip01_Neck
eye_left_bone Bip01_Head
eye_right_bone Bip01_Head
L_forearm L_humerus
L_front_hand L_forearm
L_weapon_bone L_forearm
L_front_hand01_01 L_front_hand
L_front_hand02_01 L_front_hand
L_front_hand03_01 L_front_hand
L_front_hand01_02 L_front_hand01_01
L_front_hand02_02 L_front_hand02_01
L_front_hand03_02 L_front_hand03_01
R_forearm R_humerus
R_front_hand R_forearm
R_weapon_bone R_forearm
R_front_hand01_01 R_front_hand
R_front_hand02_01 R_front_hand
R_front_hand03_01 R_front_hand
R_front_hand01_02 R_front_hand01_01
R_front_hand02_02 R_front_hand02_01
R_front_hand03_02 R_front_hand03_01
null_rope01_connect L_mid_tent01
Rope1_Seg01 null_rope01_connect
Rope1_Seg02 Rope1_Seg01
Rope1_Seg03 Rope1_Seg02
Rope1_Seg04 Rope1_Seg03
Rope1_Seg05 Rope1_Seg04
Rope1_Seg06 Rope1_Seg05
Rope1_Seg07 Rope1_Seg06
Rope1_Seg09 Rope1_Seg07
L_mid_hand01 Rope1_Seg09
L_mid_hand02 Rope1_Seg09
L_mid_hand03 Rope1_Seg09
null_rope02_connect R_mid_tent01
Rope2_Seg01 null_rope02_connect
Rope2_Seg02 Rope2_Seg01
Rope2_Seg03 Rope2_Seg02
Rope2_Seg04 Rope2_Seg03
Rope2_Seg05 Rope2_Seg04
Rope2_Seg06 Rope2_Seg05
Rope2_Seg07 Rope2_Seg06
Rope2_Seg09 Rope2_Seg07
R_mid_hand01 Rope2_Seg09
R_mid_hand02 Rope2_Seg09
R_mid_hand03 Rope2_Seg09
spine02 spine01
spine03 spine02
pelvis spine03
null_rope03_connect pelvis
null_rope04_connect pelvis
Rope3_Seg01 null_rope03_connect
Rope3_Seg02 Rope3_Seg01
Rope3_Seg03 Rope3_Seg02
Rope3_Seg04 Rope3_Seg03
Rope3_Seg05 Rope3_Seg04
Rope3_Seg06 Rope3_Seg05
Rope3_Seg07 Rope3_Seg06
Rope3_Seg08 Rope3_Seg07
Rope3_Seg09 Rope3_Seg08
R_rear_hand01 Rope3_Seg09
R_rear_hand02 Rope3_Seg09
R_rear_hand03 Rope3_Seg09
Rope4_Seg01 null_rope04_connect
Rope4_Seg02 Rope4_Seg01
Rope4_Seg03 Rope4_Seg02
Rope4_Seg04 Rope4_Seg03
Rope4_Seg05 Rope4_Seg04
Rope4_Seg06 Rope4_Seg05
Rope4_Seg07 Rope4_Seg06
Rope4_Seg08 Rope4_Seg07
Rope4_Seg09 Rope4_Seg08
L_rear_hand01 Rope4_Seg09
L_rear_hand02 Rope4_Seg09
L_rear_hand03 Rope4_Seg09
[BasePosition]
#SegmentName Tx, Ty, Tz, Rx, Ry, Rz, BoneLength
MASTER 0.000000 0.000000 0.000000 -90.000000 0.000000 0.000000 10.000000 
root 0.000000 0.000000 0.000000 0.000000 0.000000 0.000000 10.000000 
chest 0.000000 0.000000 0.000000 0.000000 0.000000 0.000000 10.000000 
L_mid_tent01 0.000000 0.000000 0.000000 0.000000 0.000000 0.000000 10.000000 
R_mid_tent01 0.000000 0.000000 0.000000 0.000000 0.000000 0.000000 10.000000 
spine01 0.000000 0.000000 0.000000 0.000000 0.000000 0.000000 10.000000 
Bip01_Neck 0.000000 0.000000 0.000000 0.000000 0.000000 0.000000 10.000000 
L_humerus 0.000000 0.000000 0.000000 0.000000 0.000000 0.000000 10.000000 
R_humerus 0.000000 0.000000 0.000000 0.000000 0.000000 0.000000 10.000000 
weapon_bone 0.000000 0.000000 0.000000 0.000000 0.000000 0.000000 10.000000 
Bip01_Head 0.000000 0.000000 0.000000 0.000000 0.000000 0.000000 10.000000 
eye_left_bone 0.000000 0.000000 0.000000 0.000000 0.000000 0.000000 10.000000 
eye_right_bone 0.000000 0.000000 0.000000 0.000000 0.000000 0.000000 10.000000 
L_forearm 0.000000 0.000000 0.000000 0.000000 0.000000 0.000000 10.000000 
L_front_hand 0.000000 0.000000 0.000000 0.000000 0.000000 0.000000 10.000000 
L_weapon_bone 0.000000 0.000000 0.000000 0.000000 0.000000 0.000000 10.000000 
L_front_hand01_01 0.000000 0.000000 0.000000 0.000000 0.000000 0.000000 10.000000 
L_front_hand02_01 0.000000 0.000000 0.000000 0.000000 0.000000 0.000000 10.000000 
L_front_hand03_01 0.000000 0.000000 0.000000 0.000000 0.000000 0.000000 10.000000 
L_front_hand01_02 0.000000 0.000000 0.000000 0.000000 0.000000 0.000000 10.000000 
L_front_hand02_02 0.000000 0.000000 0.000000 0.000000 0.000000 0.000000 10.000000 
L_front_hand03_02 0.000000 0.000000 0.000000 0.000000 0.000000 0.000000 10.000000 
R_forearm 0.000000 0.000000 0.000000 0.000000 0.000000 0.000000 10.000000 
R_front_hand 0.000000 0.000000 0.000000 0.000000 0.000000 0.000000 10.000000 
R_weapon_bone 0.000000 0.000000 0.000000 0.000000 0.000000 0.000000 10.000000 
R_front_hand01_01 0.000000 0.000000 0.000000 0.000000 0.000000 0.000000 10.000000 
R_front_hand02_01 0.000000 0.000000 0.000000 0.000000 0.000000 0.000000 10.000000 
R_front_hand03_01 0.000000 0.000000 0.000000 0.000000 0.000000 0.000000 10.000000 
R_front_hand01_02 0.000000 0.000000 0.000000 0.000000 0.000000 0.000000 10.000000 
R_front_hand02_02 0.000000 0.000000 0.000000 0.000000 0.000000 0.000000 10.000000 
R_front_hand03_02 0.000000 0.000000 0.000000 0.000000 0.000000 0.000000 10.000000 
null_rope01_connect 0.000000 0.000000 0.000000 0.000000 0.000000 0.000000 10.000000 
Rope1_Seg01 0.000000 0.000000 0.000000 0.000000 0.000000 0.000000 10.000000 
Rope1_Seg02 0.000000 0.000000 0.000000 0.000000 0.000000 0.000000 10.000000 
Rope1_Seg03 0.000000 0.000000 0.000000 0.000000 0.000000 0.000000 10.000000 
Rope1_Seg04 0.000000 0.000000 0.000000 0.000000 0.000000 0.000000 10.000000 
Rope1_Seg05 0.000000 0.000000 0.000000 0.000000 0.000000 0.000000 10.000000 
Rope1_Seg06 0.000000 0.000000 0.000000 0.000000 0.000000 0.000000 10.000000 
Rope1_Seg07 0.000000 0.000000 0.000000 0.000000 0.000000 0.000000 10.000000 
Rope1_Seg09 0.000000 0.000000 0.000000 0.000000 0.000000 0.000000 10.000000 
L_mid_hand01 0.000000 0.000000 0.000000 0.000000 0.000000 0.000000 10.000000 
L_mid_hand02 0.000000 0.000000 0.000000 0.000000 0.000000 0.000000 10.000000 
L_mid_hand03 0.000000 0.000000 0.000000 0.000000 0.000000 0.000000 10.000000 
null_rope02_connect 0.000000 0.000000 0.000000 0.000000 0.000000 0.000000 10.000000 
Rope2_Seg01 0.000000 0.000000 0.000000 0.000000 0.000000 0.000000 10.000000 
Rope2_Seg02 0.000000 0.000000 0.000000 0.000000 0.000000 0.000000 10.000000 
Rope2_Seg03 0.000000 0.000000 0.000000 0.000000 0.000000 0.000000 10.000000 
Rope2_Seg04 0.000000 0.000000 0.000000 0.000000 0.000000 0.000000 10.000000 
Rope2_Seg05 0.000000 0.000000 0.000000 0.000000 0.000000 0.000000 10.000000 
Rope2_Seg06 0.000000 0.000000 0.000000 0.000000 0.000000 0.000000 10.000000 
Rope2_Seg07 0.000000 0.000000 0.000000 0.000000 0.000000 0.000000 10.000000 
Rope2_Seg09 0.000000 0.000000 0.000000 0.000000 0.000000 0.000000 10.000000 
R_mid_hand01 0.000000 0.000000 0.000000 0.000000 0.000000 0.000000 10.000000 
R_mid_hand02 0.000000 0.000000 0.000000 0.000000 0.000000 0.000000 10.000000 
R_mid_hand03 0.000000 0.000000 0.000000 0.000000 0.000000 0.000000 10.000000 
spine02 0.000000 0.000000 0.000000 0.000000 0.000000 0.000000 10.000000 
spine03 0.000000 0.000000 0.000000 0.000000 0.000000 0.000000 10.000000 
pelvis 0.000000 0.000000 0.000000 0.000000 0.000000 0.000000 10.000000 
null_rope03_connect 0.000000 0.000000 0.000000 0.000000 0.000000 0.000000 10.000000 
null_rope04_connect 0.000000 0.000000 0.000000 0.000000 0.000000 0.000000 10.000000 
Rope3_Seg01 0.000000 0.000000 0.000000 0.000000 0.000000 0.000000 10.000000 
Rope3_Seg02 0.000000 0.000000 0.000000 0.000000 0.000000 0.000000 10.000000 
Rope3_Seg03 0.000000 0.000000 0.000000 0.000000 0.000000 0.000000 10.000000 
Rope3_Seg04 0.000000 0.000000 0.000000 0.000000 0.000000 0.000000 10.000000 
Rope3_Seg05 0.000000 0.000000 0.000000 0.000000 0.000000 0.000000 10.000000 
Rope3_Seg06 0.000000 0.000000 0.000000 0.000000 0.000000 0.000000 10.000000 
Rope3_Seg07 0.000000 0.000000 0.000000 0.000000 0.000000 0.000000 10.000000 
Rope3_Seg08 0.000000 0.000000 0.000000 0.000000 0.000000 0.000000 10.000000 
Rope3_Seg09 0.000000 0.000000 0.000000 0.000000 0.000000 0.000000 10.000000 
R_rear_hand01 0.000000 0.000000 0.000000 0.000000 0.000000 0.000000 10.000000 
R_rear_hand02 0.000000 0.000000 0.000000 0.000000 0.000000 0.000000 10.000000 
R_rear_hand03 0.000000 0.000000 0.000000 0.000000 0.000000 0.000000 10.000000 
Rope4_Seg01 0.000000 0.000000 0.000000 0.000000 0.000000 0.000000 10.000000 
Rope4_Seg02 0.000000 0.000000 0.000000 0.000000 0.000000 0.000000 10.000000 
Rope4_Seg03 0.000000 0.000000 0.000000 0.000000 0.000000 0.000000 10.000000 
Rope4_Seg04 0.000000 0.000000 0.000000 0.000000 0.000000 0.000000 10.000000 
Rope4_Seg05 0.000000 0.000000 0.000000 0.000000 0.000000 0.000000 10.000000 
Rope4_Seg06 0.000000 0.000000 0.000000 0.000000 0.000000 0.000000 10.000000 
Rope4_Seg07 0.000000 0.000000 0.000000 0.000000 0.000000 0.000000 10.000000 
Rope4_Seg08 0.000000 0.000000 0.000000 0.000000 0.000000 0.000000 10.000000 
Rope4_Seg09 0.000000 0.000000 0.000000 0.000000 0.000000 0.000000 10.000000 
L_rear_hand01 0.000000 0.000000 0.000000 0.000000 0.000000 0.000000 10.000000 
L_rear_hand02 0.000000 0.000000 0.000000 0.000000 0.000000 0.000000 10.000000 
L_rear_hand03 0.000000 0.000000 0.000000 0.000000 0.000000 0.000000 10.000000 
#Beginning of Data. Separated by tabs
#Fr	Tx	Ty	Tz	Rx	Ry	Rz	SF
[MASTER]
8 0.000000 0.000000 0.000000 0.001660 0.001660 0.001660 0.000000
9 0.000000 0.000000 0.000000 0.001660 0.001660 0.001660 0.000000
[root]
8 -74.307526 273.021545 1558.954590 -70.551285 -15.721435 -58.131428 1584.424683
9 -67.533501 257.707947 1562.787598 -72.988228 -15.115868 -52.902233 1585.332642
[chest]
8 -84.512650 -34.090519 0.000000 5.576645 -3.456398 -178.218170 91.129311
9 -84.512650 -34.090519 0.000000 5.418895 -3.439793 -178.405945 91.129311
[L_mid_tent01]
8 27.299099 22.179224 -249.918793 -28.933491 12.911666 27.219801 252.381775
9 27.299099 22.179218 -249.918793 -30.500265 6.498262 22.024933 252.381775
[R_mid_tent01]
8 23.228794 24.509907 226.238495 -64.508270 -65.295967 -37.564606 228.744751
9 23.228794 24.509907 226.238495 5.635820 -80.773392 -108.936081 228.744751
[spine01]
8 -0.361383 -0.195265 0.000000 -0.081477 -0.037455 22.677017 0.410763
9 -0.361383 -0.195265 0.000000 -0.087310 -0.041304 22.712326 0.410763
[Bip01_Neck]
8 165.484543 71.581718 0.000119 175.896118 1.177290 24.871183 180.302734
9 165.484543 71.581718 0.000119 175.896118 1.177290 24.871185 180.302734
[L_humerus]
8 -13.983130 -135.272980 -120.471481 -4.831174 64.802528 85.218918 181.680161
9 -13.983130 -135.272980 -120.471481 -4.814240 64.616188 85.232117 181.680161
[R_humerus]
8 -13.983309 -135.273102 125.287651 86.197899 -81.822304 -6.892482 184.909012
9 -13.983309 -135.273102 125.287651 89.529953 -23.810871 -5.411788 184.909012
[weapon_bone]
8 235.964890 -300.705902 0.000000 0.000000 -89.951546 -128.212341 382.234833
9 235.964890 -300.705902 0.000000 0.000000 -89.951546 -128.212341 382.234833
[Bip01_Head]
8 247.523727 158.927185 -8.443990 -14.610669 5.844589 -62.454453 294.273926
9 246.310898 163.308456 -8.667229 -25.235001 5.844562 -62.457653 295.658325
[eye_left_bone]
8 1.484070 120.025978 -57.450199 0.000000 -90.000000 -99.840431 133.075027
9 1.613808 119.999023 -57.413944 0.000000 -90.000000 -99.840431 133.036575
[eye_right_bone]
8 1.489106 120.024147 71.650238 0.000000 -89.965736 80.156380 139.791885
9 1.618919 119.997055 71.686523 0.000000 -89.972023 80.156380 139.788666
[L_forearm]
8 322.776093 0.000000 -0.000119 0.000430 -0.002308 -111.107788 322.776093
9 322.776093 0.000000 -0.000119 0.000431 -0.002307 -111.179741 322.776093
[L_front_hand]
8 241.149185 -0.042021 -3.300071 -178.667953 -1.835447 -27.422350 241.171753
9 241.149185 -0.042021 -3.300071 -178.667953 -1.835447 -27.422350 241.171753
[L_weapon_bone]
8 156.183838 0.000000 0.000000 0.000014 0.000007 0.000001 156.183838
9 156.183838 0.000000 0.000000 0.000014 0.000007 0.000001 156.183838
[L_front_hand01_01]
8 86.095154 20.947098 -0.655860 -0.366594 -0.477154 75.385574 88.609184
9 86.095154 20.947098 -0.655860 -0.366594 -0.477154 75.385574 88.609184
[L_front_hand02_01]
8 86.935165 -11.437475 24.513514 154.403519 -59.888931 -61.371990 91.046425
9 86.935165 -11.437475 24.513514 154.403519 -59.888931 -61.371990 91.046425
[L_front_hand03_01]
8 86.637497 -14.123976 -20.424902 -153.913879 58.118130 -62.702892 90.126129
9 86.637497 -14.123976 -20.424902 -153.913849 58.118107 -62.702866 90.126129
[L_front_hand01_02]
8 71.020905 -0.000179 0.000030 0.000334 -0.002323 -106.379684 71.020905
9 71.020905 -0.000179 0.000030 0.000334 -0.002323 -106.379700 71.020905
[L_front_hand02_02]
8 71.020927 -0.000119 0.000060 0.000334 -0.002323 -106.379684 71.020927
9 71.020927 -0.000119 0.000060 0.000334 -0.002323 -106.379700 71.020927
[L_front_hand03_02]
8 71.020905 -0.000060 0.000060 0.000334 -0.002323 -106.379684 71.020905
9 71.020905 -0.000060 0.000060 0.000334 -0.002323 -106.379700 71.020905
[R_forearm]
8 322.776428 -0.000060 0.000030 0.103776 -0.185214 -30.660238 322.776428
9 322.776428 -0.000060 0.000030 0.004343 -0.210967 -1.457366 322.776428
[R_front_hand]
8 238.847015 -0.006795 2.210259 -9.936061 1.281830 -10.420321 238.857239
9 238.847015 -0.006795 2.210259 -0.526913 1.646382 -6.439413 238.857239
[R_weapon_bone]
8 155.664093 0.002503 -0.000030 0.003487 0.001180 -90.988930 155.664078
9 155.664093 0.002503 -0.000030 0.003487 0.001180 -90.988930 155.664078
[R_front_hand01_01]
8 87.624611 14.231146 22.918642 -154.633286 -59.950581 61.745811 91.683487
9 87.624611 14.231146 22.918642 -122.121353 -31.679993 18.702341 91.683487
[R_front_hand02_01]
8 89.356956 14.367283 -19.491137 154.602463 58.302822 63.744175 92.579636
9 89.356956 14.367283 -19.491137 123.409935 30.457937 21.397129 92.579636
[R_front_hand03_01]
8 87.286232 -22.307278 -0.143439 0.162154 -0.423168 -75.767784 90.091743
9 87.286232 -22.307278 -0.143439 -0.147797 -0.427427 -35.767502 90.091743
[R_front_hand01_02]
8 71.020905 0.000060 0.000119 0.001889 0.001393 17.197989 71.020905
9 71.020905 0.000060 0.000119 0.001836 0.001466 12.787611 71.020905
[R_front_hand02_02]
8 71.020844 -0.000030 -0.000119 0.001889 0.001393 17.197989 71.020836
9 71.020844 -0.000030 -0.000119 0.001836 0.001466 12.787611 71.020836
[R_front_hand03_02]
8 71.020905 0.000000 0.000030 0.001889 0.001393 17.197989 71.020905
9 71.020905 0.000000 0.000030 0.001836 0.001466 12.787611 71.020905
[null_rope01_connect]
8 328.732483 0.000000 -0.000238 112.592239 -56.662582 -33.462467 328.732483
9 328.732483 0.000000 -0.000238 112.426926 -48.588623 -25.267668 328.732483
[Rope1_Seg01]
8 -0.000011 -0.000060 0.000036 -146.110184 33.399673 -122.570946 0.000071
9 -0.000008 -0.000059 0.000041 -2.660637 19.836876 -113.653648 0.000072
[Rope1_Seg02]
8 139.999863 -0.000179 0.000000 -34.096069 2.546062 23.916433 139.999863
9 139.999863 -0.000179 0.000000 164.752213 11.004642 -17.320517 139.999863
[Rope1_Seg03]
8 139.999924 0.000060 -0.000060 -7.850986 -10.797237 22.353321 139.999924
9 139.999924 0.000060 -0.000060 -0.408187 -18.320923 18.745783 139.999924
[Rope1_Seg04]
8 139.999924 -0.000060 -0.000119 -2.196757 -7.959317 13.039167 139.999924
9 139.999924 -0.000060 -0.000119 -1.424618 -11.739782 13.518703 139.999924
[Rope1_Seg05]
8 139.999832 0.000119 -0.000060 -0.985857 -10.661918 11.507638 139.999832
9 139.999832 0.000119 -0.000060 -0.339995 -12.658729 11.293365 139.999832
[Rope1_Seg06]
8 139.999954 0.000119 -0.000060 -1.322939 -12.012133 11.553591 139.999954
9 139.999954 0.000119 -0.000060 -1.463236 -15.798594 13.145301 139.999954
[Rope1_Seg07]
8 139.999985 0.000060 0.000000 -0.509987 -6.427423 6.542742 139.999985
9 139.999985 0.000060 0.000000 -0.924807 -9.200402 7.916930 139.999985
[Rope1_Seg09]
8 121.602913 0.000119 -0.000089 -89.793175 -1.359789 0.847147 121.602913
9 121.602913 0.000119 -0.000089 -89.793175 -1.359789 0.847147 121.602913
[L_mid_hand01]
8 103.859421 1.038730 8.195221 114.520287 -53.310486 -20.623234 104.187431
9 103.859421 1.038730 8.195221 114.520294 -53.310486 -20.623241 104.187431
[L_mid_hand02]
8 105.572853 -4.139662 -10.864139 -155.067673 38.166626 -52.448826 106.211075
9 105.572853 -4.139662 -10.864139 -155.067673 38.166618 -52.448807 106.211075
[L_mid_hand03]
8 104.641464 17.579376 -3.913581 -10.970131 15.317461 57.626949 106.179977
9 104.641464 17.579376 -3.913581 -10.970129 15.317463 57.626957 106.179977
[null_rope02_connect]
8 328.732849 0.000179 -0.000119 -169.887833 -41.002644 8.633624 328.732849
9 328.732849 0.000179 -0.000119 -173.175278 -37.929512 38.314083 328.732849
[Rope2_Seg01]
8 0.000095 0.000153 0.000018 27.015699 -31.079220 -44.821308 0.000181
9 0.000095 0.000153 0.000020 36.874157 -27.776743 -52.399712 0.000181
[Rope2_Seg02]
8 139.999741 -0.000060 -0.000119 -4.424418 -5.795998 9.090425 139.999756
9 139.999741 -0.000060 -0.000119 -3.525165 -1.809523 5.369149 139.999756
[Rope2_Seg03]
8 140.000107 0.000030 0.000000 -8.639706 -18.830875 26.217299 140.000107
9 140.000107 0.000030 0.000000 -6.038302 -4.738635 11.785822 140.000107
[Rope2_Seg04]
8 139.999802 0.000000 -0.000060 -3.049566 -30.353224 36.953495 139.999802
9 139.999802 0.000000 -0.000060 -12.002447 -20.342571 39.781116 139.999802
[Rope2_Seg05]
8 139.999985 -0.000060 0.000119 27.081486 -11.965719 27.787066 139.999985
9 139.999985 -0.000060 0.000119 6.001901 -21.770397 37.862038 139.999985
[Rope2_Seg06]
8 139.999893 -0.000030 -0.000119 52.567436 6.397129 35.028927 139.999893
9 139.999893 -0.000030 -0.000119 37.803833 -3.386753 36.218132 139.999893
[Rope2_Seg07]
8 139.999893 0.000060 -0.000060 11.826751 12.177410 7.646093 139.999893
9 139.999893 0.000060 -0.000060 29.379492 15.028713 24.366924 139.999893
[Rope2_Seg09]
8 121.338966 0.000089 -0.000060 -170.561066 0.645327 -1.344544 121.338966
9 121.338966 0.000089 -0.000060 -82.797600 0.548622 -1.496802 121.338966
[R_mid_hand01]
8 104.680779 11.144459 -10.335981 -47.384258 2.963522 5.452604 105.778534
9 104.680779 11.144459 -10.335981 -47.384258 2.963522 5.452604 105.778534
[R_mid_hand02]
8 104.070427 2.443552 8.231699 75.626297 -2.250001 1.111093 104.424065
9 104.070427 2.443552 8.231699 75.626297 -2.250001 1.111093 104.424065
[R_mid_hand03]
8 106.028137 -11.221827 -5.996406 -164.381912 2.495983 -6.140520 106.788818
9 106.028137 -11.221827 -5.996406 -164.381912 2.495983 -6.140520 106.788818
[spine02]
8 129.756927 0.001550 0.000119 -0.143781 -13.276855 -5.041975 129.756927
9 129.756927 0.001550 0.000119 -0.254290 -14.054249 -4.313310 129.756927
[spine03]
8 78.614044 0.081599 -4.899017 2.028818 3.761402 18.514072 78.766579
9 78.614044 0.081594 -4.899016 2.036836 3.758914 18.609575 78.766579
[pelvis]
8 169.435242 0.051022 0.000000 -0.062868 -0.179401 15.619111 169.435257
9 169.435242 0.051022 0.000000 -0.062977 -0.179363 15.689005 169.435257
[null_rope03_connect]
8 -1.257226 -2.466202 137.391083 64.648621 -39.958069 -15.034991 137.418976
9 -1.257226 -2.466202 137.391083 68.778793 -35.903767 -21.054979 137.418976
[null_rope04_connect]
8 -1.259640 -2.480268 -137.844437 64.648621 -39.958069 -15.034991 137.872513
9 -1.259640 -2.480268 -137.844437 68.778793 -35.903767 -21.054979 137.872513
[Rope3_Seg01]
8 0.000000 0.000000 0.000000 -159.017746 -54.541931 -51.320545 0.000000
9 0.000000 0.000000 0.000000 -156.248856 -53.123276 -53.669319 0.000000
[Rope3_Seg02]
8 139.999924 -0.000119 0.000060 -1.902294 3.123846 -1.772255 139.999924
9 139.999924 -0.000119 0.000060 -1.681161 2.684611 -1.922846 139.999924
[Rope3_Seg03]
8 139.999924 -0.000119 0.000119 -2.882793 4.818612 -2.531279 139.999924
9 139.999924 -0.000119 0.000119 -2.565695 4.058246 -2.737753 139.999924
[Rope3_Seg04]
8 139.999924 0.000119 0.000000 -4.875898 8.440191 -3.947606 139.999924
9 139.999924 0.000119 0.000000 -4.395833 6.905509 -4.250976 139.999924
[Rope3_Seg05]
8 139.999924 -0.000238 0.000060 -7.441225 16.631235 -5.060040 139.999924
9 139.999924 -0.000238 0.000060 -7.503322 13.539114 -6.332435 139.999924
[Rope3_Seg06]
8 139.999893 -0.000119 -0.000060 -8.548393 28.471478 -8.133262 139.999893
9 139.999893 -0.000119 -0.000060 -10.491076 24.206657 -9.404002 139.999893
[Rope3_Seg07]
8 139.999771 0.000060 -0.000119 -7.928459 54.039658 -19.958572 139.999771
9 139.999771 0.000060 -0.000119 -14.248405 47.764332 -20.042927 139.999771
[Rope3_Seg08]
8 139.999985 -0.000060 0.000000 5.046195 21.162483 -6.180481 139.999985
9 139.999985 -0.000060 0.000000 2.393925 25.972551 -6.064558 139.999985
[Rope3_Seg09]
8 90.185997 -0.000179 -0.000060 75.539169 -1.362496 -0.847150 90.185997
9 90.185997 -0.000179 -0.000060 73.500839 -1.359590 -0.846561 90.185997
[R_rear_hand01]
8 103.366196 -6.073594 -10.757982 -165.486237 20.162525 -42.491131 104.101845
9 103.366196 -6.073594 -10.757982 -169.737930 22.551676 -54.126614 104.101845
[R_rear_hand02]
8 100.509819 12.039542 -7.992327 -29.942976 25.833334 40.126621 101.543350
9 100.509819 12.039542 -7.992327 -24.598206 30.936132 51.337250 101.543350
[R_rear_hand03]
8 101.539970 5.215704 5.435467 82.198990 -43.108894 9.209250 101.819031
9 101.539970 5.215704 5.435467 80.282906 -54.075901 11.757576 101.819031
[Rope4_Seg01]
8 -0.000017 -0.000058 -0.000153 47.594860 -23.873529 -101.338577 0.000164
9 -0.000017 -0.000056 -0.000153 41.440861 -22.905767 -86.080025 0.000163
[Rope4_Seg02]
8 139.999985 0.000060 0.000119 -0.021137 -2.759447 -2.545801 139.999985
9 139.999985 0.000060 0.000119 0.132648 -2.687299 -1.787406 139.999985
[Rope4_Seg03]
8 139.999924 0.000000 -0.000238 -0.136565 -4.498127 -4.171276 139.999924
9 139.999924 0.000000 -0.000238 0.177508 -4.081288 -2.711923 139.999924
[Rope4_Seg04]
8 139.999985 0.000000 0.000119 -0.626448 -8.824924 -8.345630 139.999985
9 139.999985 0.000000 0.000119 0.287907 -7.079255 -4.705027 139.999985
[Rope4_Seg05]
8 139.999802 -0.000060 -0.000119 -6.088839 -22.439293 -23.063784 139.999802
9 139.999802 -0.000060 -0.000119 1.175382 -16.798084 -10.233909 139.999802
[Rope4_Seg06]
8 139.999924 0.000000 0.000060 -84.429749 -21.002687 -33.735806 139.999924
9 139.999924 0.000000 0.000060 1.114507 -28.490072 -19.367081 139.999924
[Rope4_Seg07]
8 139.999802 0.000000 0.000000 -37.383667 23.731968 -15.250120 139.999802
9 139.999802 0.000000 0.000000 -108.353676 -23.570463 -29.015514 139.999802
[Rope4_Seg08]
8 139.999924 0.000000 0.000119 -6.265513 14.027154 0.687308 139.999924
9 139.999924 0.000000 0.000119 -28.734341 25.438187 -6.856300 139.999924
[Rope4_Seg09]
8 90.185791 0.000060 0.000060 -135.617828 2.228885 0.850567 90.185791
9 90.185791 0.000060 0.000060 -135.617828 2.228885 0.850567 90.185791
[L_rear_hand01]
8 101.696655 -8.392275 -7.654577 -19.915020 -33.950905 119.950104 102.329041
9 101.696655 -8.392275 -7.654577 -19.915018 -33.950897 119.950104 102.329041
[L_rear_hand02]
8 102.726799 -1.568258 5.773216 77.862221 61.878510 165.399200 102.900848
9 102.726799 -1.568258 5.773216 77.862236 61.878510 165.399200 102.900848
[L_rear_hand03]
8 104.552910 9.721220 -10.420293 -173.099182 -23.740307 -117.327896 105.519653
9 104.552910 9.721220 -10.420293 -173.099182 -23.740309 -117.327911 105.519653
